<mxfile host="app.diagrams.net" modified="2022-06-17T15:08:19.618Z" agent="5.0 (X11; Linux x86_64) AppleWebKit/537.36 (KHTML, like Gecko) Chrome/102.0.5005.125 Safari/537.36" etag="xGiZLecqScVPjWXfSWpC" version="20.0.1" type="github">
  <diagram id="9hK_Fo90zD3wE7_XEqwj" name="Page-1">
    <mxGraphModel dx="1422" dy="841" grid="1" gridSize="10" guides="1" tooltips="1" connect="1" arrows="1" fold="1" page="1" pageScale="1" pageWidth="850" pageHeight="1100" math="0" shadow="0">
      <root>
        <mxCell id="0" />
        <mxCell id="1" parent="0" />
        <mxCell id="zPED2r3XHdw8o1QBqCak-2" value="" style="swimlane;startSize=0;" vertex="1" parent="1">
          <mxGeometry x="510" y="190" width="400" height="60" as="geometry" />
        </mxCell>
        <mxCell id="zPED2r3XHdw8o1QBqCak-31" value="" style="rounded=0;whiteSpace=wrap;html=1;labelBackgroundColor=#FFFFFF;fontSize=12;fontColor=#000000;fillColor=#CCE5FF;" vertex="1" parent="zPED2r3XHdw8o1QBqCak-2">
          <mxGeometry width="400" height="30" as="geometry" />
        </mxCell>
        <mxCell id="zPED2r3XHdw8o1QBqCak-8" value="bastidor" style="text;html=1;strokeColor=none;fillColor=none;align=center;verticalAlign=middle;whiteSpace=wrap;rounded=0;" vertex="1" parent="zPED2r3XHdw8o1QBqCak-2">
          <mxGeometry x="10" width="60" height="30" as="geometry" />
        </mxCell>
        <mxCell id="zPED2r3XHdw8o1QBqCak-10" value="matricula" style="text;html=1;strokeColor=none;fillColor=none;align=center;verticalAlign=middle;whiteSpace=wrap;rounded=0;" vertex="1" parent="zPED2r3XHdw8o1QBqCak-2">
          <mxGeometry x="90" width="60" height="30" as="geometry" />
        </mxCell>
        <mxCell id="zPED2r3XHdw8o1QBqCak-11" value="anio_vehiculo" style="text;html=1;strokeColor=none;fillColor=none;align=center;verticalAlign=middle;whiteSpace=wrap;rounded=0;" vertex="1" parent="zPED2r3XHdw8o1QBqCak-2">
          <mxGeometry x="170" width="60" height="30" as="geometry" />
        </mxCell>
        <mxCell id="zPED2r3XHdw8o1QBqCak-12" value="&lt;font style=&quot;font-size: 11px;&quot;&gt;codigo_modelo&lt;/font&gt;" style="text;html=1;strokeColor=none;fillColor=none;align=center;verticalAlign=middle;whiteSpace=wrap;rounded=0;" vertex="1" parent="zPED2r3XHdw8o1QBqCak-2">
          <mxGeometry x="240" width="80" height="30" as="geometry" />
        </mxCell>
        <mxCell id="zPED2r3XHdw8o1QBqCak-13" value="..." style="text;html=1;strokeColor=none;fillColor=none;align=center;verticalAlign=middle;whiteSpace=wrap;rounded=0;" vertex="1" parent="zPED2r3XHdw8o1QBqCak-2">
          <mxGeometry x="330" width="60" height="30" as="geometry" />
        </mxCell>
        <mxCell id="zPED2r3XHdw8o1QBqCak-24" value="&lt;div style=&quot;text-align: start;&quot;&gt;&lt;span style=&quot;background-color: initial;&quot;&gt;&lt;font style=&quot;font-size: 7px;&quot; face=&quot;Fira Code&quot;&gt;3N1AB7AD6JL617712&lt;/font&gt;&lt;/span&gt;&lt;/div&gt;" style="text;html=1;strokeColor=none;fillColor=none;align=center;verticalAlign=middle;whiteSpace=wrap;rounded=0;fontSize=11;" vertex="1" parent="zPED2r3XHdw8o1QBqCak-2">
          <mxGeometry x="10" y="30" width="60" height="30" as="geometry" />
        </mxCell>
        <mxCell id="zPED2r3XHdw8o1QBqCak-26" value="&lt;b style=&quot;font-size: 12px;&quot;&gt;KGDZ78&lt;/b&gt;" style="text;html=1;strokeColor=none;fillColor=none;align=center;verticalAlign=middle;whiteSpace=wrap;rounded=0;labelBackgroundColor=#FFFFFF;fontSize=7;fontColor=#000000;" vertex="1" parent="zPED2r3XHdw8o1QBqCak-2">
          <mxGeometry x="80" y="30" width="80" height="30" as="geometry" />
        </mxCell>
        <mxCell id="zPED2r3XHdw8o1QBqCak-27" value="&lt;font style=&quot;font-size: 12px;&quot;&gt;2018&lt;/font&gt;" style="text;html=1;strokeColor=none;fillColor=none;align=center;verticalAlign=middle;whiteSpace=wrap;rounded=0;labelBackgroundColor=#FFFFFF;fontSize=7;fontColor=#000000;" vertex="1" parent="zPED2r3XHdw8o1QBqCak-2">
          <mxGeometry x="160" y="30" width="80" height="30" as="geometry" />
        </mxCell>
        <mxCell id="zPED2r3XHdw8o1QBqCak-28" value="&lt;font style=&quot;font-size: 12px;&quot;&gt;NLF1751&lt;/font&gt;" style="text;html=1;strokeColor=none;fillColor=none;align=center;verticalAlign=middle;whiteSpace=wrap;rounded=0;labelBackgroundColor=#FFFFFF;fontSize=7;fontColor=#000000;" vertex="1" parent="zPED2r3XHdw8o1QBqCak-2">
          <mxGeometry x="240" y="30" width="80" height="30" as="geometry" />
        </mxCell>
        <mxCell id="zPED2r3XHdw8o1QBqCak-29" value="..." style="text;html=1;strokeColor=none;fillColor=none;align=center;verticalAlign=middle;whiteSpace=wrap;rounded=0;" vertex="1" parent="zPED2r3XHdw8o1QBqCak-2">
          <mxGeometry x="330" y="30" width="60" height="30" as="geometry" />
        </mxCell>
        <mxCell id="zPED2r3XHdw8o1QBqCak-20" value="" style="endArrow=none;html=1;rounded=0;exitX=0.2;exitY=1;exitDx=0;exitDy=0;exitPerimeter=0;entryX=0.2;entryY=0;entryDx=0;entryDy=0;entryPerimeter=0;" edge="1" parent="1" source="zPED2r3XHdw8o1QBqCak-2" target="zPED2r3XHdw8o1QBqCak-2">
          <mxGeometry width="50" height="50" relative="1" as="geometry">
            <mxPoint x="580" y="240" as="sourcePoint" />
            <mxPoint x="630" y="190" as="targetPoint" />
          </mxGeometry>
        </mxCell>
        <mxCell id="zPED2r3XHdw8o1QBqCak-21" value="" style="endArrow=none;html=1;rounded=0;exitX=0.4;exitY=1;exitDx=0;exitDy=0;exitPerimeter=0;entryX=0.4;entryY=0;entryDx=0;entryDy=0;entryPerimeter=0;" edge="1" parent="1" source="zPED2r3XHdw8o1QBqCak-2" target="zPED2r3XHdw8o1QBqCak-2">
          <mxGeometry width="50" height="50" relative="1" as="geometry">
            <mxPoint x="600" y="260" as="sourcePoint" />
            <mxPoint x="600" y="200" as="targetPoint" />
          </mxGeometry>
        </mxCell>
        <mxCell id="zPED2r3XHdw8o1QBqCak-22" value="" style="endArrow=none;html=1;rounded=0;exitX=0.6;exitY=1;exitDx=0;exitDy=0;exitPerimeter=0;entryX=0.6;entryY=0;entryDx=0;entryDy=0;entryPerimeter=0;" edge="1" parent="1" source="zPED2r3XHdw8o1QBqCak-2" target="zPED2r3XHdw8o1QBqCak-2">
          <mxGeometry width="50" height="50" relative="1" as="geometry">
            <mxPoint x="610" y="270" as="sourcePoint" />
            <mxPoint x="610" y="210" as="targetPoint" />
          </mxGeometry>
        </mxCell>
        <mxCell id="zPED2r3XHdw8o1QBqCak-23" value="" style="endArrow=none;html=1;rounded=0;exitX=0.8;exitY=1;exitDx=0;exitDy=0;exitPerimeter=0;entryX=0.8;entryY=0;entryDx=0;entryDy=0;entryPerimeter=0;" edge="1" parent="1" source="zPED2r3XHdw8o1QBqCak-2" target="zPED2r3XHdw8o1QBqCak-2">
          <mxGeometry width="50" height="50" relative="1" as="geometry">
            <mxPoint x="760" y="260" as="sourcePoint" />
            <mxPoint x="760" y="200" as="targetPoint" />
          </mxGeometry>
        </mxCell>
        <mxCell id="zPED2r3XHdw8o1QBqCak-64" value="" style="swimlane;startSize=0;" vertex="1" parent="1">
          <mxGeometry x="50" y="120" width="400" height="210" as="geometry" />
        </mxCell>
        <mxCell id="zPED2r3XHdw8o1QBqCak-65" value="" style="rounded=0;whiteSpace=wrap;html=1;labelBackgroundColor=#FFFFFF;fontSize=12;fontColor=#000000;fillColor=#FFE6CC;" vertex="1" parent="zPED2r3XHdw8o1QBqCak-64">
          <mxGeometry width="400" height="30" as="geometry" />
        </mxCell>
        <mxCell id="zPED2r3XHdw8o1QBqCak-66" value="..." style="text;html=1;strokeColor=none;fillColor=none;align=center;verticalAlign=middle;whiteSpace=wrap;rounded=0;" vertex="1" parent="zPED2r3XHdw8o1QBqCak-64">
          <mxGeometry x="10" width="60" height="30" as="geometry" />
        </mxCell>
        <mxCell id="zPED2r3XHdw8o1QBqCak-67" value="km" style="text;html=1;strokeColor=none;fillColor=none;align=center;verticalAlign=middle;whiteSpace=wrap;rounded=0;" vertex="1" parent="zPED2r3XHdw8o1QBqCak-64">
          <mxGeometry x="90" width="60" height="30" as="geometry" />
        </mxCell>
        <mxCell id="zPED2r3XHdw8o1QBqCak-68" value="&lt;b&gt;patente&lt;/b&gt;" style="text;html=1;strokeColor=none;fillColor=none;align=center;verticalAlign=middle;whiteSpace=wrap;rounded=0;" vertex="1" parent="zPED2r3XHdw8o1QBqCak-64">
          <mxGeometry x="170" width="60" height="30" as="geometry" />
        </mxCell>
        <mxCell id="zPED2r3XHdw8o1QBqCak-69" value="&lt;font style=&quot;font-size: 11px;&quot;&gt;fecha_consulta&lt;/font&gt;" style="text;html=1;strokeColor=none;fillColor=none;align=center;verticalAlign=middle;whiteSpace=wrap;rounded=0;" vertex="1" parent="zPED2r3XHdw8o1QBqCak-64">
          <mxGeometry x="240" width="80" height="30" as="geometry" />
        </mxCell>
        <mxCell id="zPED2r3XHdw8o1QBqCak-70" value="..." style="text;html=1;strokeColor=none;fillColor=none;align=center;verticalAlign=middle;whiteSpace=wrap;rounded=0;" vertex="1" parent="zPED2r3XHdw8o1QBqCak-64">
          <mxGeometry x="330" width="60" height="30" as="geometry" />
        </mxCell>
        <mxCell id="zPED2r3XHdw8o1QBqCak-72" value="&lt;b style=&quot;font-size: 12px;&quot;&gt;KGDZ78&lt;/b&gt;" style="text;html=1;strokeColor=none;fillColor=none;align=center;verticalAlign=middle;whiteSpace=wrap;rounded=0;labelBackgroundColor=#FFFFFF;fontSize=7;fontColor=#000000;" vertex="1" parent="zPED2r3XHdw8o1QBqCak-64">
          <mxGeometry x="160" y="30" width="80" height="30" as="geometry" />
        </mxCell>
        <mxCell id="zPED2r3XHdw8o1QBqCak-74" value="&lt;font style=&quot;font-size: 12px;&quot;&gt;2020-08-10&lt;/font&gt;" style="text;html=1;strokeColor=none;fillColor=none;align=center;verticalAlign=middle;whiteSpace=wrap;rounded=0;labelBackgroundColor=#FFFFFF;fontSize=7;fontColor=#000000;" vertex="1" parent="zPED2r3XHdw8o1QBqCak-64">
          <mxGeometry x="240" y="30" width="80" height="30" as="geometry" />
        </mxCell>
        <mxCell id="zPED2r3XHdw8o1QBqCak-80" value="..." style="text;html=1;strokeColor=none;fillColor=none;align=center;verticalAlign=middle;whiteSpace=wrap;rounded=0;" vertex="1" parent="zPED2r3XHdw8o1QBqCak-64">
          <mxGeometry x="10" y="30" width="60" height="30" as="geometry" />
        </mxCell>
        <mxCell id="zPED2r3XHdw8o1QBqCak-73" value="&lt;span style=&quot;font-size: 12px;&quot;&gt;42.300&lt;/span&gt;" style="text;html=1;strokeColor=none;fillColor=none;align=center;verticalAlign=middle;whiteSpace=wrap;rounded=0;labelBackgroundColor=#FFFFFF;fontSize=7;fontColor=#000000;" vertex="1" parent="zPED2r3XHdw8o1QBqCak-64">
          <mxGeometry x="80" y="30" width="80" height="30" as="geometry" />
        </mxCell>
        <mxCell id="zPED2r3XHdw8o1QBqCak-84" value="&lt;b style=&quot;color: rgb(0, 0, 0); font-family: Helvetica; font-size: 12px; font-style: normal; font-variant-ligatures: normal; font-variant-caps: normal; letter-spacing: normal; orphans: 2; text-align: center; text-indent: 0px; text-transform: none; widows: 2; word-spacing: 0px; -webkit-text-stroke-width: 0px; background-color: rgb(255, 255, 255); text-decoration-thickness: initial; text-decoration-style: initial; text-decoration-color: initial;&quot;&gt;KGDZ78&lt;/b&gt;" style="text;html=1;strokeColor=none;fillColor=none;align=center;verticalAlign=middle;whiteSpace=wrap;rounded=0;labelBackgroundColor=#FFFFFF;fontSize=7;fontColor=#000000;" vertex="1" parent="zPED2r3XHdw8o1QBqCak-64">
          <mxGeometry x="160" y="60" width="80" height="30" as="geometry" />
        </mxCell>
        <mxCell id="zPED2r3XHdw8o1QBqCak-85" value="&lt;b style=&quot;color: rgb(0, 0, 0); font-family: Helvetica; font-size: 12px; font-style: normal; font-variant-ligatures: normal; font-variant-caps: normal; letter-spacing: normal; orphans: 2; text-align: center; text-indent: 0px; text-transform: none; widows: 2; word-spacing: 0px; -webkit-text-stroke-width: 0px; background-color: rgb(255, 255, 255); text-decoration-thickness: initial; text-decoration-style: initial; text-decoration-color: initial;&quot;&gt;KGDZ78&lt;/b&gt;" style="text;html=1;strokeColor=none;fillColor=none;align=center;verticalAlign=middle;whiteSpace=wrap;rounded=0;labelBackgroundColor=#FFFFFF;fontSize=7;fontColor=#000000;" vertex="1" parent="zPED2r3XHdw8o1QBqCak-64">
          <mxGeometry x="160" y="90" width="80" height="30" as="geometry" />
        </mxCell>
        <mxCell id="zPED2r3XHdw8o1QBqCak-86" value="&lt;b style=&quot;color: rgb(0, 0, 0); font-family: Helvetica; font-size: 12px; font-style: normal; font-variant-ligatures: normal; font-variant-caps: normal; letter-spacing: normal; orphans: 2; text-align: center; text-indent: 0px; text-transform: none; widows: 2; word-spacing: 0px; -webkit-text-stroke-width: 0px; background-color: rgb(255, 255, 255); text-decoration-thickness: initial; text-decoration-style: initial; text-decoration-color: initial;&quot;&gt;KGDZ78&lt;/b&gt;" style="text;html=1;strokeColor=none;fillColor=none;align=center;verticalAlign=middle;whiteSpace=wrap;rounded=0;labelBackgroundColor=#FFFFFF;fontSize=7;fontColor=#000000;" vertex="1" parent="zPED2r3XHdw8o1QBqCak-64">
          <mxGeometry x="160" y="120" width="80" height="30" as="geometry" />
        </mxCell>
        <mxCell id="zPED2r3XHdw8o1QBqCak-87" value="&lt;b style=&quot;color: rgb(0, 0, 0); font-family: Helvetica; font-size: 12px; font-style: normal; font-variant-ligatures: normal; font-variant-caps: normal; letter-spacing: normal; orphans: 2; text-align: center; text-indent: 0px; text-transform: none; widows: 2; word-spacing: 0px; -webkit-text-stroke-width: 0px; background-color: rgb(255, 255, 255); text-decoration-thickness: initial; text-decoration-style: initial; text-decoration-color: initial;&quot;&gt;KGDZ78&lt;/b&gt;" style="text;html=1;strokeColor=none;fillColor=none;align=center;verticalAlign=middle;whiteSpace=wrap;rounded=0;labelBackgroundColor=#FFFFFF;fontSize=7;fontColor=#000000;" vertex="1" parent="zPED2r3XHdw8o1QBqCak-64">
          <mxGeometry x="160" y="150" width="80" height="30" as="geometry" />
        </mxCell>
        <mxCell id="zPED2r3XHdw8o1QBqCak-88" value="&lt;b style=&quot;color: rgb(0, 0, 0); font-family: Helvetica; font-size: 12px; font-style: normal; font-variant-ligatures: normal; font-variant-caps: normal; letter-spacing: normal; orphans: 2; text-align: center; text-indent: 0px; text-transform: none; widows: 2; word-spacing: 0px; -webkit-text-stroke-width: 0px; background-color: rgb(255, 255, 255); text-decoration-thickness: initial; text-decoration-style: initial; text-decoration-color: initial;&quot;&gt;KGDZ78&lt;/b&gt;" style="text;html=1;strokeColor=none;fillColor=none;align=center;verticalAlign=middle;whiteSpace=wrap;rounded=0;labelBackgroundColor=#FFFFFF;fontSize=7;fontColor=#000000;" vertex="1" parent="zPED2r3XHdw8o1QBqCak-64">
          <mxGeometry x="160" y="180" width="80" height="30" as="geometry" />
        </mxCell>
        <mxCell id="zPED2r3XHdw8o1QBqCak-89" value="&lt;font style=&quot;font-size: 12px;&quot;&gt;2020-11-17&lt;/font&gt;" style="text;html=1;strokeColor=none;fillColor=none;align=center;verticalAlign=middle;whiteSpace=wrap;rounded=0;labelBackgroundColor=#FFFFFF;fontSize=7;fontColor=#000000;" vertex="1" parent="zPED2r3XHdw8o1QBqCak-64">
          <mxGeometry x="240" y="60" width="80" height="30" as="geometry" />
        </mxCell>
        <mxCell id="zPED2r3XHdw8o1QBqCak-90" value="&lt;span style=&quot;font-size: 12px;&quot;&gt;2020-11-17&lt;/span&gt;" style="text;html=1;strokeColor=none;fillColor=none;align=center;verticalAlign=middle;whiteSpace=wrap;rounded=0;labelBackgroundColor=#FFFFFF;fontSize=7;fontColor=#000000;" vertex="1" parent="zPED2r3XHdw8o1QBqCak-64">
          <mxGeometry x="240" y="90" width="80" height="30" as="geometry" />
        </mxCell>
        <mxCell id="zPED2r3XHdw8o1QBqCak-91" value="&lt;font style=&quot;font-size: 12px;&quot;&gt;2021-05-18&lt;/font&gt;" style="text;html=1;strokeColor=none;fillColor=none;align=center;verticalAlign=middle;whiteSpace=wrap;rounded=0;labelBackgroundColor=#FFFFFF;fontSize=7;fontColor=#000000;" vertex="1" parent="zPED2r3XHdw8o1QBqCak-64">
          <mxGeometry x="240" y="120" width="80" height="30" as="geometry" />
        </mxCell>
        <mxCell id="zPED2r3XHdw8o1QBqCak-92" value="&lt;font style=&quot;font-size: 12px;&quot;&gt;2021-07-08&lt;/font&gt;" style="text;html=1;strokeColor=none;fillColor=none;align=center;verticalAlign=middle;whiteSpace=wrap;rounded=0;labelBackgroundColor=#FFFFFF;fontSize=7;fontColor=#000000;" vertex="1" parent="zPED2r3XHdw8o1QBqCak-64">
          <mxGeometry x="240" y="150" width="80" height="30" as="geometry" />
        </mxCell>
        <mxCell id="zPED2r3XHdw8o1QBqCak-93" value="&lt;font style=&quot;font-size: 12px;&quot;&gt;2021-07-08&lt;/font&gt;" style="text;html=1;strokeColor=none;fillColor=none;align=center;verticalAlign=middle;whiteSpace=wrap;rounded=0;labelBackgroundColor=#FFFFFF;fontSize=7;fontColor=#000000;" vertex="1" parent="zPED2r3XHdw8o1QBqCak-64">
          <mxGeometry x="240" y="180" width="80" height="30" as="geometry" />
        </mxCell>
        <mxCell id="zPED2r3XHdw8o1QBqCak-94" value="&lt;span style=&quot;font-size: 12px;&quot;&gt;55.521&lt;/span&gt;" style="text;html=1;strokeColor=none;fillColor=none;align=center;verticalAlign=middle;whiteSpace=wrap;rounded=0;labelBackgroundColor=#FFFFFF;fontSize=7;fontColor=#000000;" vertex="1" parent="zPED2r3XHdw8o1QBqCak-64">
          <mxGeometry x="80" y="60" width="80" height="30" as="geometry" />
        </mxCell>
        <mxCell id="zPED2r3XHdw8o1QBqCak-95" value="&lt;span style=&quot;font-size: 12px;&quot;&gt;55.950&lt;/span&gt;" style="text;html=1;strokeColor=none;fillColor=none;align=center;verticalAlign=middle;whiteSpace=wrap;rounded=0;labelBackgroundColor=#FFFFFF;fontSize=7;fontColor=#000000;" vertex="1" parent="zPED2r3XHdw8o1QBqCak-64">
          <mxGeometry x="80" y="90" width="80" height="30" as="geometry" />
        </mxCell>
        <mxCell id="zPED2r3XHdw8o1QBqCak-96" value="&lt;span style=&quot;font-size: 12px;&quot;&gt;52.000&lt;/span&gt;" style="text;html=1;strokeColor=none;fillColor=none;align=center;verticalAlign=middle;whiteSpace=wrap;rounded=0;labelBackgroundColor=#FFFFFF;fontSize=7;fontColor=#000000;" vertex="1" parent="zPED2r3XHdw8o1QBqCak-64">
          <mxGeometry x="80" y="120" width="80" height="30" as="geometry" />
        </mxCell>
        <mxCell id="zPED2r3XHdw8o1QBqCak-97" value="&lt;span style=&quot;font-size: 12px;&quot;&gt;62.150&lt;/span&gt;" style="text;html=1;strokeColor=none;fillColor=none;align=center;verticalAlign=middle;whiteSpace=wrap;rounded=0;labelBackgroundColor=#FFFFFF;fontSize=7;fontColor=#000000;" vertex="1" parent="zPED2r3XHdw8o1QBqCak-64">
          <mxGeometry x="80" y="150" width="80" height="30" as="geometry" />
        </mxCell>
        <mxCell id="zPED2r3XHdw8o1QBqCak-98" value="&lt;span style=&quot;font-size: 12px;&quot;&gt;62.500&lt;/span&gt;" style="text;html=1;strokeColor=none;fillColor=none;align=center;verticalAlign=middle;whiteSpace=wrap;rounded=0;labelBackgroundColor=#FFFFFF;fontSize=7;fontColor=#000000;" vertex="1" parent="zPED2r3XHdw8o1QBqCak-64">
          <mxGeometry x="80" y="180" width="80" height="30" as="geometry" />
        </mxCell>
        <mxCell id="zPED2r3XHdw8o1QBqCak-99" value="..." style="text;html=1;strokeColor=none;fillColor=none;align=center;verticalAlign=middle;whiteSpace=wrap;rounded=0;" vertex="1" parent="zPED2r3XHdw8o1QBqCak-64">
          <mxGeometry x="10" y="60" width="60" height="30" as="geometry" />
        </mxCell>
        <mxCell id="zPED2r3XHdw8o1QBqCak-100" value="..." style="text;html=1;strokeColor=none;fillColor=none;align=center;verticalAlign=middle;whiteSpace=wrap;rounded=0;" vertex="1" parent="zPED2r3XHdw8o1QBqCak-64">
          <mxGeometry x="10" y="90" width="60" height="30" as="geometry" />
        </mxCell>
        <mxCell id="zPED2r3XHdw8o1QBqCak-101" value="..." style="text;html=1;strokeColor=none;fillColor=none;align=center;verticalAlign=middle;whiteSpace=wrap;rounded=0;" vertex="1" parent="zPED2r3XHdw8o1QBqCak-64">
          <mxGeometry x="10" y="120" width="60" height="30" as="geometry" />
        </mxCell>
        <mxCell id="zPED2r3XHdw8o1QBqCak-102" value="..." style="text;html=1;strokeColor=none;fillColor=none;align=center;verticalAlign=middle;whiteSpace=wrap;rounded=0;" vertex="1" parent="zPED2r3XHdw8o1QBqCak-64">
          <mxGeometry x="10" y="150" width="60" height="30" as="geometry" />
        </mxCell>
        <mxCell id="zPED2r3XHdw8o1QBqCak-103" value="..." style="text;html=1;strokeColor=none;fillColor=none;align=center;verticalAlign=middle;whiteSpace=wrap;rounded=0;" vertex="1" parent="zPED2r3XHdw8o1QBqCak-64">
          <mxGeometry x="10" y="180" width="60" height="30" as="geometry" />
        </mxCell>
        <mxCell id="zPED2r3XHdw8o1QBqCak-104" value="..." style="text;html=1;strokeColor=none;fillColor=none;align=center;verticalAlign=middle;whiteSpace=wrap;rounded=0;" vertex="1" parent="zPED2r3XHdw8o1QBqCak-64">
          <mxGeometry x="330" y="120" width="60" height="30" as="geometry" />
        </mxCell>
        <mxCell id="zPED2r3XHdw8o1QBqCak-105" value="..." style="text;html=1;strokeColor=none;fillColor=none;align=center;verticalAlign=middle;whiteSpace=wrap;rounded=0;" vertex="1" parent="zPED2r3XHdw8o1QBqCak-64">
          <mxGeometry x="330" y="150" width="60" height="30" as="geometry" />
        </mxCell>
        <mxCell id="zPED2r3XHdw8o1QBqCak-106" value="..." style="text;html=1;strokeColor=none;fillColor=none;align=center;verticalAlign=middle;whiteSpace=wrap;rounded=0;" vertex="1" parent="zPED2r3XHdw8o1QBqCak-64">
          <mxGeometry x="330" y="180" width="60" height="30" as="geometry" />
        </mxCell>
        <mxCell id="zPED2r3XHdw8o1QBqCak-107" value="..." style="text;html=1;strokeColor=none;fillColor=none;align=center;verticalAlign=middle;whiteSpace=wrap;rounded=0;" vertex="1" parent="zPED2r3XHdw8o1QBqCak-64">
          <mxGeometry x="330" y="30" width="60" height="30" as="geometry" />
        </mxCell>
        <mxCell id="zPED2r3XHdw8o1QBqCak-108" value="..." style="text;html=1;strokeColor=none;fillColor=none;align=center;verticalAlign=middle;whiteSpace=wrap;rounded=0;" vertex="1" parent="zPED2r3XHdw8o1QBqCak-64">
          <mxGeometry x="330" y="60" width="60" height="30" as="geometry" />
        </mxCell>
        <mxCell id="zPED2r3XHdw8o1QBqCak-109" value="..." style="text;html=1;strokeColor=none;fillColor=none;align=center;verticalAlign=middle;whiteSpace=wrap;rounded=0;" vertex="1" parent="zPED2r3XHdw8o1QBqCak-64">
          <mxGeometry x="330" y="90" width="60" height="30" as="geometry" />
        </mxCell>
        <mxCell id="zPED2r3XHdw8o1QBqCak-76" value="" style="endArrow=none;html=1;rounded=0;exitX=0.2;exitY=1;exitDx=0;exitDy=0;exitPerimeter=0;entryX=0.2;entryY=0;entryDx=0;entryDy=0;entryPerimeter=0;" edge="1" parent="1" source="zPED2r3XHdw8o1QBqCak-64" target="zPED2r3XHdw8o1QBqCak-64">
          <mxGeometry width="50" height="50" relative="1" as="geometry">
            <mxPoint x="120" y="170" as="sourcePoint" />
            <mxPoint x="170" y="120" as="targetPoint" />
          </mxGeometry>
        </mxCell>
        <mxCell id="zPED2r3XHdw8o1QBqCak-77" value="" style="endArrow=none;html=1;rounded=0;exitX=0.4;exitY=1;exitDx=0;exitDy=0;exitPerimeter=0;entryX=0.4;entryY=0;entryDx=0;entryDy=0;entryPerimeter=0;" edge="1" parent="1" source="zPED2r3XHdw8o1QBqCak-64" target="zPED2r3XHdw8o1QBqCak-64">
          <mxGeometry width="50" height="50" relative="1" as="geometry">
            <mxPoint x="140" y="190" as="sourcePoint" />
            <mxPoint x="140" y="130" as="targetPoint" />
          </mxGeometry>
        </mxCell>
        <mxCell id="zPED2r3XHdw8o1QBqCak-78" value="" style="endArrow=none;html=1;rounded=0;exitX=0.6;exitY=1;exitDx=0;exitDy=0;exitPerimeter=0;entryX=0.6;entryY=0;entryDx=0;entryDy=0;entryPerimeter=0;" edge="1" parent="1" source="zPED2r3XHdw8o1QBqCak-64" target="zPED2r3XHdw8o1QBqCak-64">
          <mxGeometry width="50" height="50" relative="1" as="geometry">
            <mxPoint x="150" y="200" as="sourcePoint" />
            <mxPoint x="150" y="140" as="targetPoint" />
          </mxGeometry>
        </mxCell>
        <mxCell id="zPED2r3XHdw8o1QBqCak-79" value="" style="endArrow=none;html=1;rounded=0;exitX=0.8;exitY=1;exitDx=0;exitDy=0;exitPerimeter=0;entryX=0.8;entryY=0;entryDx=0;entryDy=0;entryPerimeter=0;" edge="1" parent="1" source="zPED2r3XHdw8o1QBqCak-64" target="zPED2r3XHdw8o1QBqCak-64">
          <mxGeometry width="50" height="50" relative="1" as="geometry">
            <mxPoint x="300" y="190" as="sourcePoint" />
            <mxPoint x="300" y="130" as="targetPoint" />
          </mxGeometry>
        </mxCell>
        <mxCell id="zPED2r3XHdw8o1QBqCak-110" value="&lt;font style=&quot;font-size: 41px;&quot;&gt;+&lt;/font&gt;" style="text;html=1;strokeColor=none;fillColor=none;align=center;verticalAlign=middle;whiteSpace=wrap;rounded=0;labelBackgroundColor=#FFFFFF;fontSize=12;fontColor=#000000;" vertex="1" parent="1">
          <mxGeometry x="450" y="205" width="60" height="30" as="geometry" />
        </mxCell>
        <mxCell id="zPED2r3XHdw8o1QBqCak-111" value="" style="swimlane;startSize=0;" vertex="1" parent="1">
          <mxGeometry x="160" y="400" width="400" height="210" as="geometry" />
        </mxCell>
        <mxCell id="zPED2r3XHdw8o1QBqCak-112" value="" style="rounded=0;whiteSpace=wrap;html=1;labelBackgroundColor=#FFFFFF;fontSize=12;fontColor=#000000;fillColor=#CCFFCC;" vertex="1" parent="zPED2r3XHdw8o1QBqCak-111">
          <mxGeometry width="400" height="30" as="geometry" />
        </mxCell>
        <mxCell id="zPED2r3XHdw8o1QBqCak-113" value="..." style="text;html=1;strokeColor=none;fillColor=none;align=center;verticalAlign=middle;whiteSpace=wrap;rounded=0;" vertex="1" parent="zPED2r3XHdw8o1QBqCak-111">
          <mxGeometry x="10" width="60" height="30" as="geometry" />
        </mxCell>
        <mxCell id="zPED2r3XHdw8o1QBqCak-114" value="km" style="text;html=1;strokeColor=none;fillColor=none;align=center;verticalAlign=middle;whiteSpace=wrap;rounded=0;" vertex="1" parent="zPED2r3XHdw8o1QBqCak-111">
          <mxGeometry x="90" width="60" height="30" as="geometry" />
        </mxCell>
        <mxCell id="zPED2r3XHdw8o1QBqCak-115" value="&lt;b&gt;patente&lt;/b&gt;" style="text;html=1;strokeColor=none;fillColor=none;align=center;verticalAlign=middle;whiteSpace=wrap;rounded=0;" vertex="1" parent="zPED2r3XHdw8o1QBqCak-111">
          <mxGeometry x="170" width="60" height="30" as="geometry" />
        </mxCell>
        <mxCell id="zPED2r3XHdw8o1QBqCak-116" value="&lt;font style=&quot;font-size: 11px;&quot;&gt;fecha_consulta&lt;/font&gt;" style="text;html=1;strokeColor=none;fillColor=none;align=center;verticalAlign=middle;whiteSpace=wrap;rounded=0;" vertex="1" parent="zPED2r3XHdw8o1QBqCak-111">
          <mxGeometry x="240" width="80" height="30" as="geometry" />
        </mxCell>
        <mxCell id="zPED2r3XHdw8o1QBqCak-117" value="..." style="text;html=1;strokeColor=none;fillColor=none;align=center;verticalAlign=middle;whiteSpace=wrap;rounded=0;" vertex="1" parent="zPED2r3XHdw8o1QBqCak-111">
          <mxGeometry x="330" width="60" height="30" as="geometry" />
        </mxCell>
        <mxCell id="zPED2r3XHdw8o1QBqCak-118" value="&lt;font style=&quot;font-size: 12px;&quot;&gt;&lt;b&gt;KGDZ78&lt;/b&gt;&lt;/font&gt;" style="text;html=1;strokeColor=none;fillColor=none;align=center;verticalAlign=middle;whiteSpace=wrap;rounded=0;labelBackgroundColor=#FFFFFF;fontSize=7;fontColor=#000000;" vertex="1" parent="zPED2r3XHdw8o1QBqCak-111">
          <mxGeometry x="160" y="30" width="80" height="30" as="geometry" />
        </mxCell>
        <mxCell id="zPED2r3XHdw8o1QBqCak-119" value="&lt;font style=&quot;font-size: 12px;&quot;&gt;2020-08-10&lt;/font&gt;" style="text;html=1;strokeColor=none;fillColor=none;align=center;verticalAlign=middle;whiteSpace=wrap;rounded=0;labelBackgroundColor=#FFFFFF;fontSize=7;fontColor=#000000;" vertex="1" parent="zPED2r3XHdw8o1QBqCak-111">
          <mxGeometry x="240" y="30" width="80" height="30" as="geometry" />
        </mxCell>
        <mxCell id="zPED2r3XHdw8o1QBqCak-120" value="..." style="text;html=1;strokeColor=none;fillColor=none;align=center;verticalAlign=middle;whiteSpace=wrap;rounded=0;" vertex="1" parent="zPED2r3XHdw8o1QBqCak-111">
          <mxGeometry x="10" y="30" width="60" height="30" as="geometry" />
        </mxCell>
        <mxCell id="zPED2r3XHdw8o1QBqCak-121" value="&lt;span style=&quot;font-size: 12px;&quot;&gt;42.300&lt;/span&gt;" style="text;html=1;strokeColor=none;fillColor=none;align=center;verticalAlign=middle;whiteSpace=wrap;rounded=0;labelBackgroundColor=#FFFFFF;fontSize=7;fontColor=#000000;" vertex="1" parent="zPED2r3XHdw8o1QBqCak-111">
          <mxGeometry x="80" y="30" width="80" height="30" as="geometry" />
        </mxCell>
        <mxCell id="zPED2r3XHdw8o1QBqCak-122" value="&lt;font style=&quot;font-size: 12px;&quot;&gt;&lt;b&gt;KGDZ78&lt;/b&gt;&lt;/font&gt;" style="text;html=1;strokeColor=none;fillColor=none;align=center;verticalAlign=middle;whiteSpace=wrap;rounded=0;labelBackgroundColor=#FFFFFF;fontSize=7;fontColor=#000000;" vertex="1" parent="zPED2r3XHdw8o1QBqCak-111">
          <mxGeometry x="160" y="60" width="80" height="30" as="geometry" />
        </mxCell>
        <mxCell id="zPED2r3XHdw8o1QBqCak-123" value="&lt;font style=&quot;font-size: 12px;&quot;&gt;&lt;b&gt;KGDZ78&lt;/b&gt;&lt;/font&gt;" style="text;html=1;strokeColor=none;fillColor=none;align=center;verticalAlign=middle;whiteSpace=wrap;rounded=0;labelBackgroundColor=#FFFFFF;fontSize=7;fontColor=#000000;" vertex="1" parent="zPED2r3XHdw8o1QBqCak-111">
          <mxGeometry x="160" y="90" width="80" height="30" as="geometry" />
        </mxCell>
        <mxCell id="zPED2r3XHdw8o1QBqCak-124" value="&lt;font style=&quot;font-size: 12px;&quot;&gt;&lt;b&gt;KGDZ78&lt;/b&gt;&lt;/font&gt;" style="text;html=1;strokeColor=none;fillColor=none;align=center;verticalAlign=middle;whiteSpace=wrap;rounded=0;labelBackgroundColor=#FFFFFF;fontSize=7;fontColor=#000000;" vertex="1" parent="zPED2r3XHdw8o1QBqCak-111">
          <mxGeometry x="160" y="120" width="80" height="30" as="geometry" />
        </mxCell>
        <mxCell id="zPED2r3XHdw8o1QBqCak-125" value="&lt;font style=&quot;font-size: 12px;&quot;&gt;&lt;b&gt;KGDZ78&lt;/b&gt;&lt;/font&gt;" style="text;html=1;strokeColor=none;fillColor=none;align=center;verticalAlign=middle;whiteSpace=wrap;rounded=0;labelBackgroundColor=#FFFFFF;fontSize=7;fontColor=#000000;" vertex="1" parent="zPED2r3XHdw8o1QBqCak-111">
          <mxGeometry x="160" y="150" width="80" height="30" as="geometry" />
        </mxCell>
        <mxCell id="zPED2r3XHdw8o1QBqCak-126" value="&lt;font style=&quot;font-size: 12px;&quot;&gt;&lt;b&gt;KGDZ78&lt;/b&gt;&lt;/font&gt;" style="text;html=1;strokeColor=none;fillColor=none;align=center;verticalAlign=middle;whiteSpace=wrap;rounded=0;labelBackgroundColor=#FFFFFF;fontSize=7;fontColor=#000000;" vertex="1" parent="zPED2r3XHdw8o1QBqCak-111">
          <mxGeometry x="160" y="180" width="80" height="30" as="geometry" />
        </mxCell>
        <mxCell id="zPED2r3XHdw8o1QBqCak-127" value="&lt;font style=&quot;font-size: 12px;&quot;&gt;2020-11-17&lt;/font&gt;" style="text;html=1;strokeColor=none;fillColor=none;align=center;verticalAlign=middle;whiteSpace=wrap;rounded=0;labelBackgroundColor=#FFFFFF;fontSize=7;fontColor=#000000;" vertex="1" parent="zPED2r3XHdw8o1QBqCak-111">
          <mxGeometry x="240" y="60" width="80" height="30" as="geometry" />
        </mxCell>
        <mxCell id="zPED2r3XHdw8o1QBqCak-128" value="&lt;span style=&quot;font-size: 12px;&quot;&gt;2020-11-17&lt;/span&gt;" style="text;html=1;strokeColor=none;fillColor=none;align=center;verticalAlign=middle;whiteSpace=wrap;rounded=0;labelBackgroundColor=#FFFFFF;fontSize=7;fontColor=#000000;" vertex="1" parent="zPED2r3XHdw8o1QBqCak-111">
          <mxGeometry x="240" y="90" width="80" height="30" as="geometry" />
        </mxCell>
        <mxCell id="zPED2r3XHdw8o1QBqCak-129" value="&lt;font style=&quot;font-size: 12px;&quot;&gt;2021-05-18&lt;/font&gt;" style="text;html=1;strokeColor=none;fillColor=none;align=center;verticalAlign=middle;whiteSpace=wrap;rounded=0;labelBackgroundColor=#FFFFFF;fontSize=7;fontColor=#000000;" vertex="1" parent="zPED2r3XHdw8o1QBqCak-111">
          <mxGeometry x="240" y="120" width="80" height="30" as="geometry" />
        </mxCell>
        <mxCell id="zPED2r3XHdw8o1QBqCak-130" value="&lt;font style=&quot;font-size: 12px;&quot;&gt;2021-07-08&lt;/font&gt;" style="text;html=1;strokeColor=none;fillColor=none;align=center;verticalAlign=middle;whiteSpace=wrap;rounded=0;labelBackgroundColor=#FFFFFF;fontSize=7;fontColor=#000000;" vertex="1" parent="zPED2r3XHdw8o1QBqCak-111">
          <mxGeometry x="240" y="150" width="80" height="30" as="geometry" />
        </mxCell>
        <mxCell id="zPED2r3XHdw8o1QBqCak-131" value="&lt;font style=&quot;font-size: 12px;&quot;&gt;2021-07-08&lt;/font&gt;" style="text;html=1;strokeColor=none;fillColor=none;align=center;verticalAlign=middle;whiteSpace=wrap;rounded=0;labelBackgroundColor=#FFFFFF;fontSize=7;fontColor=#000000;" vertex="1" parent="zPED2r3XHdw8o1QBqCak-111">
          <mxGeometry x="240" y="180" width="80" height="30" as="geometry" />
        </mxCell>
        <mxCell id="zPED2r3XHdw8o1QBqCak-132" value="&lt;span style=&quot;font-size: 12px;&quot;&gt;55.521&lt;/span&gt;" style="text;html=1;strokeColor=none;fillColor=none;align=center;verticalAlign=middle;whiteSpace=wrap;rounded=0;labelBackgroundColor=#FFFFFF;fontSize=7;fontColor=#000000;" vertex="1" parent="zPED2r3XHdw8o1QBqCak-111">
          <mxGeometry x="80" y="60" width="80" height="30" as="geometry" />
        </mxCell>
        <mxCell id="zPED2r3XHdw8o1QBqCak-133" value="&lt;span style=&quot;font-size: 12px;&quot;&gt;55.950&lt;/span&gt;" style="text;html=1;strokeColor=none;fillColor=none;align=center;verticalAlign=middle;whiteSpace=wrap;rounded=0;labelBackgroundColor=#FFFFFF;fontSize=7;fontColor=#000000;" vertex="1" parent="zPED2r3XHdw8o1QBqCak-111">
          <mxGeometry x="80" y="90" width="80" height="30" as="geometry" />
        </mxCell>
        <mxCell id="zPED2r3XHdw8o1QBqCak-134" value="&lt;span style=&quot;font-size: 12px;&quot;&gt;52.000&lt;/span&gt;" style="text;html=1;strokeColor=none;fillColor=none;align=center;verticalAlign=middle;whiteSpace=wrap;rounded=0;labelBackgroundColor=#FFFFFF;fontSize=7;fontColor=#000000;" vertex="1" parent="zPED2r3XHdw8o1QBqCak-111">
          <mxGeometry x="80" y="120" width="80" height="30" as="geometry" />
        </mxCell>
        <mxCell id="zPED2r3XHdw8o1QBqCak-135" value="&lt;span style=&quot;font-size: 12px;&quot;&gt;62.150&lt;/span&gt;" style="text;html=1;strokeColor=none;fillColor=none;align=center;verticalAlign=middle;whiteSpace=wrap;rounded=0;labelBackgroundColor=#FFFFFF;fontSize=7;fontColor=#000000;" vertex="1" parent="zPED2r3XHdw8o1QBqCak-111">
          <mxGeometry x="80" y="150" width="80" height="30" as="geometry" />
        </mxCell>
        <mxCell id="zPED2r3XHdw8o1QBqCak-136" value="&lt;span style=&quot;font-size: 12px;&quot;&gt;62.500&lt;/span&gt;" style="text;html=1;strokeColor=none;fillColor=none;align=center;verticalAlign=middle;whiteSpace=wrap;rounded=0;labelBackgroundColor=#FFFFFF;fontSize=7;fontColor=#000000;" vertex="1" parent="zPED2r3XHdw8o1QBqCak-111">
          <mxGeometry x="80" y="180" width="80" height="30" as="geometry" />
        </mxCell>
        <mxCell id="zPED2r3XHdw8o1QBqCak-137" value="..." style="text;html=1;strokeColor=none;fillColor=none;align=center;verticalAlign=middle;whiteSpace=wrap;rounded=0;" vertex="1" parent="zPED2r3XHdw8o1QBqCak-111">
          <mxGeometry x="10" y="60" width="60" height="30" as="geometry" />
        </mxCell>
        <mxCell id="zPED2r3XHdw8o1QBqCak-138" value="..." style="text;html=1;strokeColor=none;fillColor=none;align=center;verticalAlign=middle;whiteSpace=wrap;rounded=0;" vertex="1" parent="zPED2r3XHdw8o1QBqCak-111">
          <mxGeometry x="10" y="90" width="60" height="30" as="geometry" />
        </mxCell>
        <mxCell id="zPED2r3XHdw8o1QBqCak-139" value="..." style="text;html=1;strokeColor=none;fillColor=none;align=center;verticalAlign=middle;whiteSpace=wrap;rounded=0;" vertex="1" parent="zPED2r3XHdw8o1QBqCak-111">
          <mxGeometry x="10" y="120" width="60" height="30" as="geometry" />
        </mxCell>
        <mxCell id="zPED2r3XHdw8o1QBqCak-140" value="..." style="text;html=1;strokeColor=none;fillColor=none;align=center;verticalAlign=middle;whiteSpace=wrap;rounded=0;" vertex="1" parent="zPED2r3XHdw8o1QBqCak-111">
          <mxGeometry x="10" y="150" width="60" height="30" as="geometry" />
        </mxCell>
        <mxCell id="zPED2r3XHdw8o1QBqCak-141" value="..." style="text;html=1;strokeColor=none;fillColor=none;align=center;verticalAlign=middle;whiteSpace=wrap;rounded=0;" vertex="1" parent="zPED2r3XHdw8o1QBqCak-111">
          <mxGeometry x="10" y="180" width="60" height="30" as="geometry" />
        </mxCell>
        <mxCell id="zPED2r3XHdw8o1QBqCak-142" value="..." style="text;html=1;strokeColor=none;fillColor=none;align=center;verticalAlign=middle;whiteSpace=wrap;rounded=0;" vertex="1" parent="zPED2r3XHdw8o1QBqCak-111">
          <mxGeometry x="330" y="120" width="60" height="30" as="geometry" />
        </mxCell>
        <mxCell id="zPED2r3XHdw8o1QBqCak-143" value="..." style="text;html=1;strokeColor=none;fillColor=none;align=center;verticalAlign=middle;whiteSpace=wrap;rounded=0;" vertex="1" parent="zPED2r3XHdw8o1QBqCak-111">
          <mxGeometry x="330" y="150" width="60" height="30" as="geometry" />
        </mxCell>
        <mxCell id="zPED2r3XHdw8o1QBqCak-144" value="..." style="text;html=1;strokeColor=none;fillColor=none;align=center;verticalAlign=middle;whiteSpace=wrap;rounded=0;" vertex="1" parent="zPED2r3XHdw8o1QBqCak-111">
          <mxGeometry x="330" y="180" width="60" height="30" as="geometry" />
        </mxCell>
        <mxCell id="zPED2r3XHdw8o1QBqCak-145" value="..." style="text;html=1;strokeColor=none;fillColor=none;align=center;verticalAlign=middle;whiteSpace=wrap;rounded=0;" vertex="1" parent="zPED2r3XHdw8o1QBqCak-111">
          <mxGeometry x="330" y="30" width="60" height="30" as="geometry" />
        </mxCell>
        <mxCell id="zPED2r3XHdw8o1QBqCak-146" value="..." style="text;html=1;strokeColor=none;fillColor=none;align=center;verticalAlign=middle;whiteSpace=wrap;rounded=0;" vertex="1" parent="zPED2r3XHdw8o1QBqCak-111">
          <mxGeometry x="330" y="60" width="60" height="30" as="geometry" />
        </mxCell>
        <mxCell id="zPED2r3XHdw8o1QBqCak-147" value="..." style="text;html=1;strokeColor=none;fillColor=none;align=center;verticalAlign=middle;whiteSpace=wrap;rounded=0;" vertex="1" parent="zPED2r3XHdw8o1QBqCak-111">
          <mxGeometry x="330" y="90" width="60" height="30" as="geometry" />
        </mxCell>
        <mxCell id="zPED2r3XHdw8o1QBqCak-148" value="" style="endArrow=none;html=1;rounded=0;exitX=0.2;exitY=1;exitDx=0;exitDy=0;exitPerimeter=0;entryX=0.2;entryY=0;entryDx=0;entryDy=0;entryPerimeter=0;" edge="1" parent="1" source="zPED2r3XHdw8o1QBqCak-111" target="zPED2r3XHdw8o1QBqCak-111">
          <mxGeometry width="50" height="50" relative="1" as="geometry">
            <mxPoint x="230" y="450" as="sourcePoint" />
            <mxPoint x="280" y="400" as="targetPoint" />
          </mxGeometry>
        </mxCell>
        <mxCell id="zPED2r3XHdw8o1QBqCak-149" value="" style="endArrow=none;html=1;rounded=0;exitX=0.4;exitY=1;exitDx=0;exitDy=0;exitPerimeter=0;entryX=0.4;entryY=0;entryDx=0;entryDy=0;entryPerimeter=0;" edge="1" parent="1" source="zPED2r3XHdw8o1QBqCak-111" target="zPED2r3XHdw8o1QBqCak-111">
          <mxGeometry width="50" height="50" relative="1" as="geometry">
            <mxPoint x="250" y="470" as="sourcePoint" />
            <mxPoint x="250" y="410" as="targetPoint" />
          </mxGeometry>
        </mxCell>
        <mxCell id="zPED2r3XHdw8o1QBqCak-150" value="" style="endArrow=none;html=1;rounded=0;exitX=0.6;exitY=1;exitDx=0;exitDy=0;exitPerimeter=0;entryX=0.6;entryY=0;entryDx=0;entryDy=0;entryPerimeter=0;" edge="1" parent="1" source="zPED2r3XHdw8o1QBqCak-111" target="zPED2r3XHdw8o1QBqCak-111">
          <mxGeometry width="50" height="50" relative="1" as="geometry">
            <mxPoint x="260" y="480" as="sourcePoint" />
            <mxPoint x="260" y="420" as="targetPoint" />
          </mxGeometry>
        </mxCell>
        <mxCell id="zPED2r3XHdw8o1QBqCak-151" value="" style="endArrow=none;html=1;rounded=0;exitX=0.8;exitY=1;exitDx=0;exitDy=0;exitPerimeter=0;entryX=0.8;entryY=0;entryDx=0;entryDy=0;entryPerimeter=0;" edge="1" parent="1" source="zPED2r3XHdw8o1QBqCak-111" target="zPED2r3XHdw8o1QBqCak-111">
          <mxGeometry width="50" height="50" relative="1" as="geometry">
            <mxPoint x="410" y="470" as="sourcePoint" />
            <mxPoint x="410" y="410" as="targetPoint" />
          </mxGeometry>
        </mxCell>
        <mxCell id="zPED2r3XHdw8o1QBqCak-152" value="&lt;span style=&quot;font-size: 41px;&quot;&gt;=&lt;/span&gt;" style="text;html=1;strokeColor=none;fillColor=none;align=center;verticalAlign=middle;whiteSpace=wrap;rounded=0;labelBackgroundColor=#FFFFFF;fontSize=12;fontColor=#000000;rotation=90;" vertex="1" parent="1">
          <mxGeometry x="450" y="350" width="60" height="30" as="geometry" />
        </mxCell>
        <mxCell id="zPED2r3XHdw8o1QBqCak-192" value="..." style="text;html=1;strokeColor=none;fillColor=none;align=center;verticalAlign=middle;whiteSpace=wrap;rounded=0;" vertex="1" parent="1">
          <mxGeometry x="730" y="400" width="60" height="30" as="geometry" />
        </mxCell>
        <mxCell id="zPED2r3XHdw8o1QBqCak-153" value="" style="swimlane;startSize=0;labelBackgroundColor=#FFFFFF;fontSize=41;fontColor=#000000;fillColor=#CCFFCC;" vertex="1" parent="1">
          <mxGeometry x="560" y="400" width="80" height="210" as="geometry" />
        </mxCell>
        <mxCell id="zPED2r3XHdw8o1QBqCak-154" value="" style="swimlane;startSize=0;labelBackgroundColor=#FFFFFF;fontSize=41;fontColor=#000000;fillColor=#CCFFCC;" vertex="1" parent="1">
          <mxGeometry x="560" y="400" width="240" height="210" as="geometry" />
        </mxCell>
        <mxCell id="zPED2r3XHdw8o1QBqCak-164" value="&lt;span style=&quot;color: rgb(0, 0, 0); font-family: Helvetica; font-size: 12px; font-style: normal; font-variant-ligatures: normal; font-variant-caps: normal; font-weight: 400; letter-spacing: normal; orphans: 2; text-align: center; text-indent: 0px; text-transform: none; widows: 2; word-spacing: 0px; -webkit-text-stroke-width: 0px; background-color: rgb(248, 249, 250); text-decoration-thickness: initial; text-decoration-style: initial; text-decoration-color: initial; float: none; display: inline !important;&quot;&gt;2018&lt;/span&gt;" style="text;html=1;strokeColor=none;fillColor=none;align=center;verticalAlign=middle;whiteSpace=wrap;rounded=0;" vertex="1" parent="zPED2r3XHdw8o1QBqCak-154">
          <mxGeometry x="10" y="120" width="60" height="30" as="geometry" />
        </mxCell>
        <mxCell id="zPED2r3XHdw8o1QBqCak-165" value="&lt;span style=&quot;color: rgb(0, 0, 0); font-family: Helvetica; font-size: 12px; font-style: normal; font-variant-ligatures: normal; font-variant-caps: normal; font-weight: 400; letter-spacing: normal; orphans: 2; text-align: center; text-indent: 0px; text-transform: none; widows: 2; word-spacing: 0px; -webkit-text-stroke-width: 0px; background-color: rgb(248, 249, 250); text-decoration-thickness: initial; text-decoration-style: initial; text-decoration-color: initial; float: none; display: inline !important;&quot;&gt;2018&lt;/span&gt;" style="text;html=1;strokeColor=none;fillColor=none;align=center;verticalAlign=middle;whiteSpace=wrap;rounded=0;" vertex="1" parent="zPED2r3XHdw8o1QBqCak-154">
          <mxGeometry x="10" y="150" width="60" height="30" as="geometry" />
        </mxCell>
        <mxCell id="zPED2r3XHdw8o1QBqCak-166" value="&lt;span style=&quot;color: rgb(0, 0, 0); font-family: Helvetica; font-size: 12px; font-style: normal; font-variant-ligatures: normal; font-variant-caps: normal; font-weight: 400; letter-spacing: normal; orphans: 2; text-align: center; text-indent: 0px; text-transform: none; widows: 2; word-spacing: 0px; -webkit-text-stroke-width: 0px; background-color: rgb(248, 249, 250); text-decoration-thickness: initial; text-decoration-style: initial; text-decoration-color: initial; float: none; display: inline !important;&quot;&gt;2018&lt;/span&gt;" style="text;html=1;strokeColor=none;fillColor=none;align=center;verticalAlign=middle;whiteSpace=wrap;rounded=0;" vertex="1" parent="zPED2r3XHdw8o1QBqCak-154">
          <mxGeometry x="10" y="180" width="60" height="30" as="geometry" />
        </mxCell>
        <mxCell id="zPED2r3XHdw8o1QBqCak-168" value="2018" style="text;html=1;strokeColor=none;fillColor=none;align=center;verticalAlign=middle;whiteSpace=wrap;rounded=0;" vertex="1" parent="zPED2r3XHdw8o1QBqCak-154">
          <mxGeometry x="10" y="60" width="60" height="30" as="geometry" />
        </mxCell>
        <mxCell id="zPED2r3XHdw8o1QBqCak-169" value="&lt;span style=&quot;color: rgb(0, 0, 0); font-family: Helvetica; font-size: 12px; font-style: normal; font-variant-ligatures: normal; font-variant-caps: normal; font-weight: 400; letter-spacing: normal; orphans: 2; text-align: center; text-indent: 0px; text-transform: none; widows: 2; word-spacing: 0px; -webkit-text-stroke-width: 0px; background-color: rgb(248, 249, 250); text-decoration-thickness: initial; text-decoration-style: initial; text-decoration-color: initial; float: none; display: inline !important;&quot;&gt;2018&lt;/span&gt;" style="text;html=1;strokeColor=none;fillColor=none;align=center;verticalAlign=middle;whiteSpace=wrap;rounded=0;" vertex="1" parent="zPED2r3XHdw8o1QBqCak-154">
          <mxGeometry x="10" y="90" width="60" height="30" as="geometry" />
        </mxCell>
        <mxCell id="zPED2r3XHdw8o1QBqCak-167" value="2018" style="text;html=1;strokeColor=none;fillColor=none;align=center;verticalAlign=middle;whiteSpace=wrap;rounded=0;" vertex="1" parent="zPED2r3XHdw8o1QBqCak-154">
          <mxGeometry x="10" y="30" width="60" height="30" as="geometry" />
        </mxCell>
        <mxCell id="zPED2r3XHdw8o1QBqCak-163" value="anio_vehiculo" style="text;html=1;strokeColor=none;fillColor=none;align=center;verticalAlign=middle;whiteSpace=wrap;rounded=0;" vertex="1" parent="zPED2r3XHdw8o1QBqCak-154">
          <mxGeometry x="10" width="60" height="30" as="geometry" />
        </mxCell>
        <mxCell id="zPED2r3XHdw8o1QBqCak-210" value="" style="rounded=0;whiteSpace=wrap;html=1;labelBackgroundColor=#FFFFFF;fontSize=10;fontColor=#000000;fillColor=#CCFFCC;" vertex="1" parent="zPED2r3XHdw8o1QBqCak-154">
          <mxGeometry width="240" height="30" as="geometry" />
        </mxCell>
        <mxCell id="zPED2r3XHdw8o1QBqCak-211" value="&lt;font style=&quot;font-size: 12px;&quot;&gt;anio_vehiculo&lt;/font&gt;" style="text;html=1;strokeColor=none;fillColor=none;align=center;verticalAlign=middle;whiteSpace=wrap;rounded=0;" vertex="1" parent="zPED2r3XHdw8o1QBqCak-154">
          <mxGeometry x="10" width="60" height="30" as="geometry" />
        </mxCell>
        <mxCell id="zPED2r3XHdw8o1QBqCak-212" value="&lt;font style=&quot;font-size: 13px;&quot;&gt;...&lt;/font&gt;" style="text;html=1;strokeColor=none;fillColor=none;align=center;verticalAlign=middle;whiteSpace=wrap;rounded=0;" vertex="1" parent="zPED2r3XHdw8o1QBqCak-154">
          <mxGeometry x="170" width="60" height="30" as="geometry" />
        </mxCell>
        <mxCell id="zPED2r3XHdw8o1QBqCak-171" value="" style="swimlane;startSize=0;labelBackgroundColor=#FFFFFF;fontSize=41;fontColor=#000000;fillColor=#CCFFCC;" vertex="1" parent="1">
          <mxGeometry x="640" y="400" width="80" height="210" as="geometry" />
        </mxCell>
        <mxCell id="zPED2r3XHdw8o1QBqCak-172" value="" style="swimlane;startSize=0;labelBackgroundColor=#FFFFFF;fontSize=41;fontColor=#000000;fillColor=#CCFFCC;" vertex="1" parent="1">
          <mxGeometry x="640" y="400" width="160" height="210" as="geometry" />
        </mxCell>
        <mxCell id="zPED2r3XHdw8o1QBqCak-173" value="&lt;font style=&quot;font-size: 10px;&quot;&gt;codigo_modelo&lt;/font&gt;" style="text;html=1;strokeColor=none;fillColor=none;align=center;verticalAlign=middle;whiteSpace=wrap;rounded=0;" vertex="1" parent="zPED2r3XHdw8o1QBqCak-172">
          <mxGeometry x="10" width="60" height="30" as="geometry" />
        </mxCell>
        <mxCell id="zPED2r3XHdw8o1QBqCak-174" value="&lt;span style=&quot;color: rgb(0, 0, 0); font-family: Helvetica; font-size: 12px; font-style: normal; font-variant-ligatures: normal; font-variant-caps: normal; font-weight: 400; letter-spacing: normal; orphans: 2; text-align: center; text-indent: 0px; text-transform: none; widows: 2; word-spacing: 0px; -webkit-text-stroke-width: 0px; background-color: rgb(255, 255, 255); text-decoration-thickness: initial; text-decoration-style: initial; text-decoration-color: initial; float: none; display: inline !important;&quot;&gt;NLF1751&lt;/span&gt;" style="text;html=1;strokeColor=none;fillColor=none;align=center;verticalAlign=middle;whiteSpace=wrap;rounded=0;" vertex="1" parent="zPED2r3XHdw8o1QBqCak-172">
          <mxGeometry x="10" y="120" width="60" height="30" as="geometry" />
        </mxCell>
        <mxCell id="zPED2r3XHdw8o1QBqCak-175" value="&lt;span style=&quot;color: rgb(0, 0, 0); font-family: Helvetica; font-size: 12px; font-style: normal; font-variant-ligatures: normal; font-variant-caps: normal; font-weight: 400; letter-spacing: normal; orphans: 2; text-align: center; text-indent: 0px; text-transform: none; widows: 2; word-spacing: 0px; -webkit-text-stroke-width: 0px; background-color: rgb(255, 255, 255); text-decoration-thickness: initial; text-decoration-style: initial; text-decoration-color: initial; float: none; display: inline !important;&quot;&gt;NLF1751&lt;/span&gt;" style="text;html=1;strokeColor=none;fillColor=none;align=center;verticalAlign=middle;whiteSpace=wrap;rounded=0;" vertex="1" parent="zPED2r3XHdw8o1QBqCak-172">
          <mxGeometry x="10" y="150" width="60" height="30" as="geometry" />
        </mxCell>
        <mxCell id="zPED2r3XHdw8o1QBqCak-176" value="&lt;span style=&quot;color: rgb(0, 0, 0); font-family: Helvetica; font-size: 12px; font-style: normal; font-variant-ligatures: normal; font-variant-caps: normal; font-weight: 400; letter-spacing: normal; orphans: 2; text-align: center; text-indent: 0px; text-transform: none; widows: 2; word-spacing: 0px; -webkit-text-stroke-width: 0px; background-color: rgb(255, 255, 255); text-decoration-thickness: initial; text-decoration-style: initial; text-decoration-color: initial; float: none; display: inline !important;&quot;&gt;NLF1751&lt;/span&gt;" style="text;html=1;strokeColor=none;fillColor=none;align=center;verticalAlign=middle;whiteSpace=wrap;rounded=0;" vertex="1" parent="zPED2r3XHdw8o1QBqCak-172">
          <mxGeometry x="10" y="180" width="60" height="30" as="geometry" />
        </mxCell>
        <mxCell id="zPED2r3XHdw8o1QBqCak-177" value="&lt;span style=&quot;color: rgb(0, 0, 0); font-family: Helvetica; font-size: 12px; font-style: normal; font-variant-ligatures: normal; font-variant-caps: normal; font-weight: 400; letter-spacing: normal; orphans: 2; text-align: center; text-indent: 0px; text-transform: none; widows: 2; word-spacing: 0px; -webkit-text-stroke-width: 0px; background-color: rgb(255, 255, 255); text-decoration-thickness: initial; text-decoration-style: initial; text-decoration-color: initial; float: none; display: inline !important;&quot;&gt;NLF1751&lt;/span&gt;" style="text;html=1;strokeColor=none;fillColor=none;align=center;verticalAlign=middle;whiteSpace=wrap;rounded=0;" vertex="1" parent="zPED2r3XHdw8o1QBqCak-172">
          <mxGeometry x="10" y="30" width="60" height="30" as="geometry" />
        </mxCell>
        <mxCell id="zPED2r3XHdw8o1QBqCak-178" value="&lt;span style=&quot;color: rgb(0, 0, 0); font-family: Helvetica; font-size: 12px; font-style: normal; font-variant-ligatures: normal; font-variant-caps: normal; font-weight: 400; letter-spacing: normal; orphans: 2; text-align: center; text-indent: 0px; text-transform: none; widows: 2; word-spacing: 0px; -webkit-text-stroke-width: 0px; background-color: rgb(255, 255, 255); text-decoration-thickness: initial; text-decoration-style: initial; text-decoration-color: initial; float: none; display: inline !important;&quot;&gt;NLF1751&lt;/span&gt;" style="text;html=1;strokeColor=none;fillColor=none;align=center;verticalAlign=middle;whiteSpace=wrap;rounded=0;" vertex="1" parent="zPED2r3XHdw8o1QBqCak-172">
          <mxGeometry x="10" y="60" width="60" height="30" as="geometry" />
        </mxCell>
        <mxCell id="zPED2r3XHdw8o1QBqCak-179" value="&lt;span style=&quot;color: rgb(0, 0, 0); font-family: Helvetica; font-size: 12px; font-style: normal; font-variant-ligatures: normal; font-variant-caps: normal; font-weight: 400; letter-spacing: normal; orphans: 2; text-align: center; text-indent: 0px; text-transform: none; widows: 2; word-spacing: 0px; -webkit-text-stroke-width: 0px; background-color: rgb(255, 255, 255); text-decoration-thickness: initial; text-decoration-style: initial; text-decoration-color: initial; float: none; display: inline !important;&quot;&gt;NLF1751&lt;/span&gt;" style="text;html=1;strokeColor=none;fillColor=none;align=center;verticalAlign=middle;whiteSpace=wrap;rounded=0;" vertex="1" parent="zPED2r3XHdw8o1QBqCak-172">
          <mxGeometry x="10" y="90" width="60" height="30" as="geometry" />
        </mxCell>
        <mxCell id="zPED2r3XHdw8o1QBqCak-199" value="" style="swimlane;startSize=0;labelBackgroundColor=#FFFFFF;fontSize=41;fontColor=#000000;fillColor=#CCFFCC;" vertex="1" parent="zPED2r3XHdw8o1QBqCak-172">
          <mxGeometry x="80" width="80" height="210" as="geometry" />
        </mxCell>
        <mxCell id="zPED2r3XHdw8o1QBqCak-193" value="..." style="text;html=1;strokeColor=none;fillColor=none;align=center;verticalAlign=middle;whiteSpace=wrap;rounded=0;" vertex="1" parent="1">
          <mxGeometry x="730" y="520" width="60" height="30" as="geometry" />
        </mxCell>
        <mxCell id="zPED2r3XHdw8o1QBqCak-194" value="..." style="text;html=1;strokeColor=none;fillColor=none;align=center;verticalAlign=middle;whiteSpace=wrap;rounded=0;" vertex="1" parent="1">
          <mxGeometry x="730" y="550" width="60" height="30" as="geometry" />
        </mxCell>
        <mxCell id="zPED2r3XHdw8o1QBqCak-195" value="..." style="text;html=1;strokeColor=none;fillColor=none;align=center;verticalAlign=middle;whiteSpace=wrap;rounded=0;" vertex="1" parent="1">
          <mxGeometry x="730" y="580" width="60" height="30" as="geometry" />
        </mxCell>
        <mxCell id="zPED2r3XHdw8o1QBqCak-196" value="..." style="text;html=1;strokeColor=none;fillColor=none;align=center;verticalAlign=middle;whiteSpace=wrap;rounded=0;" vertex="1" parent="1">
          <mxGeometry x="730" y="430" width="60" height="30" as="geometry" />
        </mxCell>
        <mxCell id="zPED2r3XHdw8o1QBqCak-197" value="..." style="text;html=1;strokeColor=none;fillColor=none;align=center;verticalAlign=middle;whiteSpace=wrap;rounded=0;" vertex="1" parent="1">
          <mxGeometry x="730" y="460" width="60" height="30" as="geometry" />
        </mxCell>
        <mxCell id="zPED2r3XHdw8o1QBqCak-198" value="..." style="text;html=1;strokeColor=none;fillColor=none;align=center;verticalAlign=middle;whiteSpace=wrap;rounded=0;" vertex="1" parent="1">
          <mxGeometry x="730" y="490" width="60" height="30" as="geometry" />
        </mxCell>
        <mxCell id="zPED2r3XHdw8o1QBqCak-216" value="&lt;b&gt;data_raw_compra_autopress&lt;/b&gt;" style="text;html=1;strokeColor=none;fillColor=none;align=center;verticalAlign=middle;whiteSpace=wrap;rounded=0;labelBackgroundColor=#FFFFFF;fontSize=12;fontColor=#000000;" vertex="1" parent="1">
          <mxGeometry x="150" y="90" width="200" height="30" as="geometry" />
        </mxCell>
        <mxCell id="zPED2r3XHdw8o1QBqCak-217" value="&lt;b&gt;data_raw_venta_resumenventas&lt;br&gt;&lt;/b&gt;" style="text;html=1;strokeColor=none;fillColor=none;align=center;verticalAlign=middle;whiteSpace=wrap;rounded=0;labelBackgroundColor=#FFFFFF;fontSize=12;fontColor=#000000;" vertex="1" parent="1">
          <mxGeometry x="610" y="160" width="200" height="30" as="geometry" />
        </mxCell>
      </root>
    </mxGraphModel>
  </diagram>
</mxfile>
